<?xml version="1.0" encoding="utf-8"?>
<!-- Generator: Adobe Illustrator 21.1.0, SVG Export Plug-In . SVG Version: 6.00 Build 0)  -->
<svg version="1.1" id="Layer_1" xmlns="http://www.w3.org/2000/svg" xmlns:xlink="http://www.w3.org/1999/xlink" x="0px" y="0px"
	 viewBox="0 0 517.9 153.5" style="enable-background:new 0 0 517.9 153.5;" xml:space="preserve">
<style type="text/css">
	.st0{fill:#231F20;}
</style>
<g>
	<g>
		<path class="st0" d="M167.3,59.8c-10.5,21.4-20.4,42.3-20.4,60.7c0,10.3,5.8,16.1,13.3,16.1c5.9,0,8.4-3.8,9.3-3.8
			c0.7,0,1,0.7,1,1.3c0,2.5-10.3,14.8-21.4,14.8c-12.1,0-22.3-10.9-22.3-27.5c0-29.8,28.8-79.3,36.9-91.5l-0.7-0.1
			c-11.4,13.7-53.9,79.9-60,85.1c-3.8,3.3-6.6,5-13.7,5c-4,0-7.5-1-7.5-3c0-2.1,2.1-3.8,3.8-6.9c1.8-3.2,26-65.2,30.3-77.6h-1.3
			c-13.1,17.7-47.9,88.4-86.1,88.4c-18,0-28.4-13.4-28.4-32.1c0-24.5,24.4-48.2,47.4-48.2c12.3,0,20.2,10.6,20.2,21.6
			c0,14.3-15.7,32.5-30.4,32.5c-6.1,0-9.5-1.2-9.5-1.9c0-0.9,3-0.9,5.6-2.2c2.5-1.3,19.2-13.1,19.2-29.4c0-7.8-3.5-12.7-9.6-12.7
			c-14.5,0-29.7,22.6-29.7,38c0,13.3,7.1,20.5,19.7,20.5c20.8,0,40.5-31.3,53.9-52.9c9.8-15.5,24.4-37.2,35.3-46.8
			c4.3-3.8,10.8-3.5,12.1-3.5c4.6,0,8.6,0.7,8.6,5.8c0,7.2-23.8,63.2-28.2,73.7l0.9,0.6c13-20.8,46.1-70.3,58.1-77.6
			c3.8-2.2,7.5-2.4,10.8-2.4c3.1,0,7.7,1,7.7,5.6C192.1,16,177.7,38.4,167.3,59.8z"/>
		<path class="st0" d="M184.2,120.4c-10,0-17.9-10.2-17.9-22.3c0-18.8,22.2-52.5,42-52.5c5.3,0,8.1-1.6,11.2-1.6
			c4.7,0,9.2,5.5,9.2,11.2c0,11.1-16.4,30.3-40.2,30.3c-0.4,0-0.9,0-1.3-0.1c-1.9,4.4-3.1,8.6-3.1,12.1c0,6.5,2.4,10.6,7.8,10.6
			c19.7,0,35.9-29.3,37.7-29.3c1.6,0,1.8,2.7,1.8,4.9C231.4,89.1,208.8,120.4,184.2,120.4z M215.1,52.6c-5.2,0-16.8,12.4-24.2,25.4
			c11.7-2.5,26.9-14.5,26.9-22.9C217.8,53.5,216.9,52.6,215.1,52.6z"/>
		<path class="st0" d="M310.9,120.4c-16,0-23.3-11.4-29.4-23.2c-11.7,12.1-25.4,21.9-39.9,21.9c-10,0-17.7-7.8-17.7-18.9
			c0-20.2,17.4-41.4,40.2-41.4c8.7,0,14.8,3.3,19.4,8.1c3.4-4.7,6.6-9.6,9.8-14.3c10.6-16.1,24.4-31,38.3-40.9c-3.5-0.7-7.5-1-12-1
			c-27.8,0-53,18.3-53,29.4c0,1.5,1.8,2.8,3.8,2.8c13.7,0,26-18.8,28.4-23c0.3-0.4,0.6-0.7,0.9-0.7c0.3,0,0.6,0.6,0.6,1.2
			c0,25-17.3,36.3-30.4,36.3c-8.1,0-14.6-4.3-14.6-12.4C255,29.6,284.4,4,324.6,4c5.8,0,11.2,0.6,16.1,1.9c7.1-3.8,14-5.9,20.4-5.9
			c4.1,0,6.6,1.3,6.6,1.8c0,0.9-0.7,0.9-3.8,0.9c-4.6,0-9.5,2.4-14.3,6.5c14,6.6,22.8,20.2,22.8,41.2
			C372.3,83.2,345.3,120.4,310.9,120.4z M256.8,70c-14.2,0-26,11.7-26,25.1c0,6.6,4.3,10.8,9.6,10.8c9,0,20.7-10.8,32.5-25.3
			C268.9,74.5,264.2,70,256.8,70z M341.9,16.5c-12.6,14-25,35.3-34,47.6c-4,5.5-8.9,12.3-14.5,19.4c5,10.6,9.3,20.8,19.7,20.8
			c23.8,0,38.1-33.5,38.1-60C351.2,32.4,348.1,21.9,341.9,16.5z"/>
		<path class="st0" d="M448,84.8c-7.5,14.9-19.8,21.1-29.1,21.1c-0.4,0-0.7,0-1.2,0c-7.7,8.4-16.7,14.3-26.3,14.3
			c-12.4,0-20.7-6.9-20.7-21.1c0-21.6,21.6-55.1,45.5-55.1c4.3,0,7.8,1.9,12,1.9c6.9,0,9.6,5.9,9.6,11.8c0,10.6-4.3,24.1-11.2,35.9
			c0.9,0.3,1.6,0.6,2.5,0.6c8.6,0,14.9-14.6,17-14.6c1.2,0,2.2,1.9,2.2,3.8C448.3,84.1,448.1,84.5,448,84.8z M422.4,54.2
			c-11.7,0-30.4,25.6-30.4,43.1c0,5,1.8,8.6,6.4,8.6c2.7,0,5.3-1.2,8-3.1c-3.8-2.2-5.9-5.8-5.9-9.5c0-5.2,3.5-9.9,9.9-9.9
			c3.5,0,6.4,1.8,8.7,3.8c5.3-9.3,8.9-19.7,8.9-25.6C427.9,58.1,426.7,54.2,422.4,54.2z"/>
		<path class="st0" d="M517.6,84.8c-7.5,14.9-19.8,21.1-29.1,21.1c-0.4,0-0.7,0-1.2,0c-7.7,8.4-16.7,14.3-26.3,14.3
			c-12.4,0-20.7-6.9-20.7-21.1c0-21.6,21.6-55.1,45.5-55.1c4.3,0,7.8,1.9,12,1.9c6.9,0,9.6,5.9,9.6,11.8c0,10.6-4.3,24.1-11.2,35.9
			c0.9,0.3,1.6,0.6,2.5,0.6c8.6,0,14.9-14.6,17-14.6c1.2,0,2.2,1.9,2.2,3.8C517.9,84.1,517.7,84.5,517.6,84.8z M492,54.2
			c-11.7,0-30.4,25.6-30.4,43.1c0,5,1.8,8.6,6.4,8.6c2.7,0,5.3-1.2,8-3.1c-3.8-2.2-5.9-5.8-5.9-9.5c0-5.2,3.5-9.9,9.9-9.9
			c3.5,0,6.4,1.8,8.7,3.8c5.3-9.3,8.9-19.7,8.9-25.6C497.5,58.1,496.3,54.2,492,54.2z"/>
	</g>
	<g>
		<path class="st0" d="M204.7,132.6h-0.3v-1.1c0-3.7-4-9.1-7.2-9.1h-0.5v22.1c0,1.1,0.6,1.9,1.4,1.9h1.9v0.4h-14.3v-0.4h2.4
			c0.7,0,1.3-0.8,1.3-1.8v-22.2h-0.4c-2.8,0-7.4,5.1-7.4,9.3v0.9h-0.3V122h23.4V132.6z"/>
		<path class="st0" d="M225.7,130.4h-0.4c-2,0-3.3,2.8-3.8,4.3l-4.9,14.7c-0.9,2.7-2.6,4-5.1,4c-2.3,0-3.8-1.8-3.8-3.7
			c0-1.9,1.5-3.3,3.2-3.3c1.8,0,3.1,1.5,3.1,3c0,1.6-1.2,2.9-2.9,2.9c-0.6,0-1.1-0.2-1.4-0.2c-0.1,0-0.1,0-0.1,0.1
			c0,0.5,1,0.9,2,0.9c1.5,0,3.6-0.7,4.5-3.5l0.9-2.8h-2.5l-6.8-14.8c-0.5-1.1-1.1-1.5-1.7-1.5h-0.7V130h11.2v0.4h-0.8
			c-0.5,0-0.8,0.2-0.8,0.7c0,0.2,0,0.4,0.1,0.6l3.8,9.6l1.9-5.7c0.4-1.2,0.6-2.2,0.6-2.9c0-1.6-0.8-2.2-1.5-2.2h-0.5V130h6.4V130.4z
			"/>
		<path class="st0" d="M237.7,147.1c-2.3,0-3.4-1.1-4-3.3v7.3c0,0.8,0.4,1.5,1.1,1.5h0.9v0.4h-10.9v-0.4h0.9c0.9,0,1.5-0.6,1.5-1.5
			v-19.3c0-0.8-0.4-1.4-1.3-1.4h-0.8V130h8.6v2.6c0.5-2.1,1.8-3.3,3.9-3.3c4,0,6.4,4.5,6.4,9.1C244,143.1,241.2,147.1,237.7,147.1z
			 M235.9,130.6c-1.1,0-2.1,2-2.1,7.6c0,6.5,1.5,8.1,2.5,8.1c1.1,0,1.4-2,1.4-8C237.7,132.1,237.2,130.6,235.9,130.6z"/>
		<path class="st0" d="M254.4,147.4c-5.1,0-9.3-4-9.3-9c0-4.9,4.2-9,9.3-9c5.1,0,9.3,4,9.3,9C263.7,143.4,259.5,147.4,254.4,147.4z
			 M254.4,129.9c-1.9,0-2.2,1.6-2.2,8.6c0,7.4,0.5,8.4,2.2,8.4c1.7,0,2.2-1.4,2.2-8.3C256.6,132.7,256.7,129.9,254.4,129.9z"/>
		<path class="st0" d="M273.1,153.5c-6.1,0-8.9-1.4-8.9-3.7c0-1.5,1.6-2.6,3.3-3c-1.6-0.5-2.6-1.6-2.6-3.5c0-2.2,2.1-3.6,4.4-4.1
			c-2.1-0.9-3.5-2.5-3.5-4.4c0-2.9,3.4-5.2,7.6-5.2c0.7,0,1.3,0.1,1.9,0.2c-0.3-0.6-0.5-1.3-0.5-2.1c0-1.8,1.4-3.7,3.9-3.7
			c2,0,3.2,1.5,3.2,2.9c0,1.6-1.3,2.7-2.8,2.7c-1.5,0-2.8-1.2-2.8-2.6c0-1.1,0.8-2,0.8-2c0-0.1-0.1-0.1-0.2-0.1
			c-0.4,0-1.8,1.1-1.8,2.8c0,1.3,0.7,2,1.4,2.5c2.6,0.8,4.4,2.6,4.4,4.7c0,2.9-3.4,5.2-7.6,5.2c-1.2,0-2.4-0.2-3.4-0.6
			c-0.8,0.1-1.4,0.6-1.4,1.3c0,1.5,1.5,1.5,5.4,1.4c4-0.1,8.9,0.2,8.9,5.2C283,151.2,280.3,153.5,273.1,153.5z M271.8,147.5
			c-1.2-0.1-2.2-0.1-3.1-0.3c-1.7,0.2-2.2,1.3-2.2,2.7c0,2.8,2.6,3.2,6.6,3.2c4.6,0,5.7-1.1,5.7-2.9
			C278.8,147.9,275.3,147.6,271.8,147.5z M273.5,130.1c-1.3,0-1.8,0.9-1.8,4.9c0,4,0.4,4.7,1.9,4.7c1.5,0,1.7-0.9,1.7-4.7
			C275.3,131.1,275.1,130.1,273.5,130.1z"/>
		<path class="st0" d="M296.7,136.5c-1.4,0-3-1.2-3-2.9c0-1.9,1.4-3.1,2.9-3.1c1.1,0,1.6,0.5,1.8,0.5c0.1,0,0.2-0.1,0.2-0.2
			c0-0.5-0.9-1.3-2.2-1.3c-1.3,0-3.4,1-3.4,4.5V145c0,1,0.4,1.4,0.9,1.4h1.2v0.4h-11.1v-0.4h1.1c0.9,0,1.6-0.5,1.6-1.3v-13.2
			c0-0.8-0.4-1.4-1.1-1.4h-1.1V130h8.3l0.2,1.9c0.4-0.8,1.4-2.7,3.7-2.7c1.9,0,3.4,1.6,3.4,3.8S298.3,136.5,296.7,136.5z"/>
		<path class="st0" d="M319,142.3c0,3-0.6,4.9-3.9,4.9c-4,0-4.6-3.4-4.7-3.4c-0.1,0-0.3,0.8-0.9,1.6c-0.6,0.8-1.3,1.6-3.5,1.6
			c-3.3,0-5.4-1.8-5.4-4.4c0-4.1,4.2-4.3,5.9-4.7c1.7-0.4,3.9-0.9,3.9-4.8c0-2.8-0.9-3.3-2.3-3.3c-1.4,0-3,0.8-3,1.3
			c0,0.2,0.1,0.2,0.1,0.2c0.1,0,0.2,0,0.3,0c1.6,0,2.7,1.3,2.7,2.8c0,1.8-1.5,3.3-3.2,3.3c-1.7,0-3.3-1.3-3.3-3.3
			c0-2.3,2.3-4.5,7.4-4.5c4.3,0,7.2,1.7,7.2,5v10.6c0,0.8,0.3,1.1,0.7,1.1c0.7,0,1.5-1.4,1.5-3.6c0-0.2,0-0.3,0-0.4H319z
			 M310.3,136.3c-0.1,0-0.5,0.6-1.1,1.1c-0.6,0.4-2,1-2,5.1c0,3.5,0.1,3.8,0.9,3.8c1,0,2.4-2.5,2.4-4.6v-5.3c0,0,0,0,0,0
			C310.3,136.4,310.3,136.3,310.3,136.3z"/>
		<path class="st0" d="M331.6,147.1c-2.3,0-3.4-1.1-4-3.3v7.3c0,0.8,0.4,1.5,1.1,1.5h0.9v0.4h-10.9v-0.4h0.9c0.9,0,1.5-0.6,1.5-1.5
			v-19.3c0-0.8-0.4-1.4-1.3-1.4h-0.8V130h8.6v2.6c0.5-2.1,1.8-3.3,3.9-3.3c4,0,6.4,4.5,6.4,9.1C337.9,143.1,335.1,147.1,331.6,147.1
			z M329.8,130.6c-1.1,0-2.1,2-2.1,7.6c0,6.5,1.6,8.1,2.5,8.1c1.1,0,1.4-2,1.4-8C331.6,132.1,331.1,130.6,329.8,130.6z"/>
		<path class="st0" d="M359.2,146.8h-9.7v-0.4h0.4c0.7,0,1.1-0.5,1.1-1.2v-12.3c0-1.8-0.7-2.3-1.5-2.3c-1.2,0-2.3,1.6-2.3,4v10.8
			c0,0.8,0.6,1.1,0.8,1.1h0.6v0.4h-9.9v-0.4h0.9c0.9,0,1.5-0.7,1.5-1.5v-21.1c0-0.7-0.3-1.4-1.1-1.4H339V122h8.2v10.3
			c0.6-1.7,2-2.8,5-2.8c2.5,0,5,1.3,5,5.1v10.6c0,0.8,0.2,1.2,0.9,1.2h1.2V146.8z"/>
		<path class="st0" d="M379.4,130.4H379c-2,0-3.3,2.8-3.8,4.3l-4.9,14.7c-0.9,2.7-2.6,4-5.1,4c-2.3,0-3.8-1.8-3.8-3.7
			c0-1.9,1.5-3.3,3.2-3.3c1.8,0,3.1,1.5,3.1,3c0,1.6-1.2,2.9-2.9,2.9c-0.6,0-1.1-0.2-1.4-0.2c-0.1,0-0.1,0-0.1,0.1
			c0,0.5,1,0.9,2,0.9c1.5,0,3.6-0.7,4.5-3.5l0.9-2.8h-2.5l-6.8-14.8c-0.5-1.1-1.1-1.5-1.7-1.5H359V130h11.2v0.4h-0.8
			c-0.5,0-0.8,0.2-0.8,0.7c0,0.2,0,0.4,0.1,0.6l3.8,9.6l1.9-5.7c0.4-1.2,0.6-2.2,0.6-2.9c0-1.6-0.8-2.2-1.5-2.2H373V130h6.4V130.4z"
			/>
		<path class="st0" d="M401.2,136.3c-1,0-1.7-0.2-2.2-0.4v8.4c0,1.5,0.7,2.1,2.5,2.1h1.3v0.4h-14.2v-0.4h1.1c1.5,0,2.1-0.8,2.1-2.3
			v-19.9c0-1.4-0.9-1.8-1.8-1.8h-1.4V122h13.8c5.2,0,8.3,3.5,8.3,6.9C410.6,133.3,407.1,136.3,401.2,136.3z M400.6,122.4h-1.6v13
			c0.4,0.2,0.9,0.4,1.7,0.4c2,0,2.8-0.7,2.8-6.7C403.4,122.6,402.1,122.4,400.6,122.4z"/>
		<path class="st0" d="M424.8,136.5c-1.4,0-3-1.2-3-2.9c0-1.9,1.4-3.1,2.9-3.1c1.1,0,1.6,0.5,1.8,0.5c0.1,0,0.2-0.1,0.2-0.2
			c0-0.5-0.9-1.3-2.2-1.3c-1.3,0-3.4,1-3.4,4.5V145c0,1,0.4,1.4,0.9,1.4h1.2v0.4H412v-0.4h1.1c0.9,0,1.6-0.5,1.6-1.3v-13.2
			c0-0.8-0.4-1.4-1.1-1.4h-1.1V130h8.3l0.2,1.9c0.4-0.8,1.4-2.7,3.7-2.7c1.9,0,3.4,1.6,3.4,3.8S426.4,136.5,424.8,136.5z"/>
		<path class="st0" d="M439.6,146.8h-10.9v-0.4h0.9c0.9,0,1.5-0.6,1.5-1.5v-13.1c0-0.8-0.4-1.4-1.3-1.4H429V130h8.6v14.9
			c0,0.8,0.4,1.5,1.1,1.5h0.9V146.8z M434.2,128.9c-2,0-3.6-1.4-3.6-3.2c0-1.7,1.6-3.1,3.6-3.1c2,0,3.6,1.4,3.6,3.1
			C437.8,127.5,436.1,128.9,434.2,128.9z"/>
		<path class="st0" d="M460.7,146.8h-9.7v-0.4h0.4c0.7,0,1.1-0.5,1.1-1.2v-12.1c0-1.8-0.7-2.3-1.5-2.3c-1.2,0-2.3,1.6-2.3,4v10.6
			c0,0.8,0.6,1.1,0.8,1.1h0.6v0.4h-9.9v-0.4h0.9c0.9,0,1.5-0.7,1.5-1.5v-13.1c0-0.8-0.3-1.3-1.1-1.3h-1.1V130h8.2v2.2
			c0.6-2,2.5-2.8,4.9-2.8c2.6,0,5.1,1.6,5.1,5.2v10.5c0,0.8,0.2,1.2,0.9,1.2h1.2V146.8z"/>
		<path class="st0" d="M472.1,141.2c0,4.6-1.8,6.1-4.7,6.1c-2.7,0-4.7-1.1-4.7-3.6v-13.3h-1.7V130h1.1c3.1,0,6.9-2.7,6.9-6.1l0.4,0
			v6.1h2.9v0.5h-2.9v14c0,1.2,0.3,1.3,0.8,1.3c0.8,0,1.7-1.6,1.7-4.7H472.1z"/>
		<path class="st0" d="M482.5,147.4c-2.7,0-4.6-1.4-6.2-1.4c-1.3,0-1.7,0.7-1.8,0.9h-0.3v-7.8h0.2c0.4,2,3.6,7.9,7.6,7.9
			c1.6,0,2.6-0.8,2.6-2.4c0-2.2-2.5-2.8-5.1-3.7c-2.6-0.9-5.1-2.2-5.1-6c0-3.4,3.4-5.7,7-5.7c1.9,0,3.7,1,4.6,1s1.1-0.5,1.1-0.7h0.3
			v5.8h-0.2c-0.4-2-2.4-5.7-5.6-5.7c-1.5,0-2.4,1-2.4,2.1c0,2.3,2.3,2.9,4.7,3.6c2.6,0.8,5.3,1.9,5.3,5.9
			C489.3,145.9,485.1,147.4,482.5,147.4z"/>
	</g>
</g>
</svg>
